<svg xmlns="http://www.w3.org/2000/svg" viewBox="0 0 260 190" width="260" height="190"
     role="img" aria-label="ArmoSpectra">
  <title>ArmoSpectra — primary vertical lockup</title>
  <desc>Mark centred over wordmark. Stack gap = 0.4x mark height.
Clearspace = wordmark cap-height on all four sides.
Minimum: 96px wide digital, 26mm print.</desc>
  <g transform="translate(60 8)" fill="none" stroke="currentColor" stroke-width="2.6"
     stroke-linecap="round" stroke-linejoin="round">
  <path d="M96 52c0-14 10-22 20-19 9 3 12 14 6 22-4 5-11 6-16 3"/>
  <path d="M96 52c-12-8-28-8-40 0-8 5-12 12-13 20"/>
  <path d="M106 58c-2 8-8 14-16 16-12 3-24 0-32-6"/>
  <path d="M100 70v18c0 4-3 7-7 7M88 74v16c0 4-3 7-7 7"/>
  <path d="M52 70c0 10 2 18 6 23M44 74c-1 10 1 18 5 22"/>
  <path d="M43 72c-13 2-23-6-23-19s10-23 22-23c9 0 15 7 13 14-2 6-9 7-12 3"/>
  <circle cx="114" cy="41" r="2.2" fill="currentColor" stroke="none"/>
  </g>
  <text x="130" y="168" text-anchor="middle" fill="currentColor"
        font-family="Montserrat, Archivo, 'Helvetica Neue', sans-serif"
        font-weight="200" font-size="24" letter-spacing="7.68">ARMOSPECTRA</text>
</svg>
